<?xml version="1.0" encoding="UTF-8"?>
<svg id="Layer_1" xmlns="http://www.w3.org/2000/svg" version="1.1" viewBox="0 0 70 70">
  <!-- Generator: Adobe Illustrator 30.2.1, SVG Export Plug-In . SVG Version: 2.1.1 Build 1)  -->
  <defs>
    <style>
      .st0 {
        fill: #1d1d1f;
      }
    </style>
  </defs>
  <path class="st0" d="M35,1.85c18.3,0,33.15,14.85,33.15,33.15s-14.85,33.15-33.15,33.15S1.85,53.3,1.85,35,16.7,1.85,35,1.85ZM35,61.52c14.68,0,26.52-11.85,26.52-26.52s-11.85-26.52-26.52-26.52c-3.48,0-6.94.68-10.16,2.01-3.22,1.33-6.15,3.28-8.61,5.75-2.46,2.46-4.42,5.39-5.75,8.61-1.33,3.22-2.01,6.67-2.01,10.16,0,14.68,11.85,26.52,26.52,26.52ZM35,54.89c-11.01,0-19.89-8.89-19.89-19.89s8.89-19.89,19.89-19.89,19.89,8.89,19.89,19.89-8.89,19.89-19.89,19.89ZM35,28.37c-3.65,0-6.63,2.98-6.63,6.63s2.98,6.63,6.63,6.63,6.63-2.98,6.63-6.63-2.98-6.63-6.63-6.63Z"/>
</svg>