<?xml version="1.0" encoding="UTF-8"?>
<svg id="Layer_1" xmlns="http://www.w3.org/2000/svg" version="1.1" viewBox="0 0 80 80">
  <!-- Generator: Adobe Illustrator 30.2.1, SVG Export Plug-In . SVG Version: 2.1.1 Build 1)  -->
  <defs>
    <style>
      .st0, .st1 {
        fill: #1d1d1f;
      }

      .st1 {
        fill-rule: evenodd;
      }
    </style>
  </defs>
  <path class="st1" d="M47.73,14.81c0-.18-.05-.35-.13-.51-.08-.16-.2-.29-.34-.39-.14-.1-.3-.16-.47-.17-.17-.02-.34.01-.49.08l-14.27,6.48c-.19.08-.34.22-.45.4-.11.18-.17.39-.17.6v2.33c0,.15.03.29.1.42s.16.24.27.32c.11.08.25.13.38.14.14.01.28,0,.4-.07l14.44-6.54c.23-.1.42-.27.56-.49.14-.22.21-.48.21-.74l-.03-1.88Z"/>
  <path class="st1" d="M28.77,20.3l-14.32-6.5c-.13-.06-.26-.1-.4-.1-.2,0-.39.07-.55.19-.14.09-.26.23-.35.39-.08.16-.12.34-.12.52v1.75c0,.29.08.57.23.81.15.24.36.43.61.54l14.43,6.55c.12.05.25.07.38.06.13-.01.25-.06.36-.14.11-.08.2-.18.26-.3.06-.12.09-.26.1-.4v-2.37c0-.21-.06-.42-.17-.6-.11-.18-.27-.32-.46-.4Z"/>
  <path class="st1" d="M32.04,27.07c-.18.08-.34.22-.45.4-.11.18-.17.38-.16.6v2.57c0,.09.03.18.07.26.04.08.1.15.17.2.07.05.15.08.24.09.09.01.17,0,.25-.03l15.6-7.09,1.03-.46,1.03-.47,3.18-1.48c.24-.11.45-.29.59-.53.14-.23.22-.51.22-.79v-1.52c0-.18-.04-.36-.12-.51-.08-.16-.19-.29-.33-.39-.16-.12-.35-.18-.55-.19-.14,0-.28.03-.41.1l-2.59,1.17-1.03.46-1.03.47-15.72,7.14Z"/>
  <path class="st1" d="M28.77,27.07l-15.76-7.17-1.03-.45-1.03-.47-2.6-1.17c-.13-.05-.26-.08-.4-.09-.13,0-.27.03-.39.08-.12.05-.24.13-.33.23-.1.1-.17.22-.22.35-.05.13-.08.27-.08.41v1.69c0,.23.06.45.18.65.12.19.29.34.49.43l3.35,1.52,1.03.47,1.03.47,15.53,7.04c.09.04.19.06.29.05.1,0,.2-.04.28-.1.09-.06.16-.14.21-.23.05-.09.08-.2.08-.3v-2.41c0-.21-.06-.42-.17-.6s-.27-.32-.46-.4Z"/>
  <path class="st0" d="M23.6,61.73c-.2.02-.4-.05-.57-.15-.17-.1-.32-.25-.42-.45-.1-.17-.15-.37-.15-.6v-21.24c0-.22.05-.42.15-.6.1-.2.25-.35.42-.45.15-.1.35-.17.55-.17s.4.07.57.17l5.25,3.21v-6.44c0-.22-.05-.42-.17-.62-.12-.17-.27-.3-.45-.37l-15.79-7.19-1.02-.47-1.04-.45-4-1.82-1.02-.47-1.02-.47-2.83-1.27c-.12-.07-.25-.1-.4-.1-.2,0-.4.07-.55.17-.15.1-.27.25-.35.4-.07.15-.12.32-.12.5l-.1,40.51c-.02.2.02.4.12.57.1.15.25.3.42.4l26.83,14.42c.15.1.32.12.5.12.17-.02.35-.07.5-.17.15-.07.27-.22.37-.37.07-.17.12-.35.12-.55v-19.42l-5.25,3.21c-.17.1-.37.15-.55.15Z"/>
  <path class="st0" d="M66.82,1.12l3.42,9.82,9.24,3.63-9.24,3.63-3.42,9.82-3.42-9.82-9.24-3.63,9.24-3.63,3.42-9.82Z"/>
  <path class="st0" d="M60.11,22.46c0-.17-.02-.37-.12-.52-.07-.15-.2-.3-.32-.4-.17-.1-.37-.17-.57-.17-.12,0-.27.02-.4.1l-2.81,1.27-1.04.47-1.02.47-4,1.82-1.02.47-1.02.47-15.72,7.11c-.17.07-.35.22-.45.4-.12.17-.17.4-.17.6v8.16l1.39.85,8.65,5.3c.17.1.32.25.42.45.1.17.15.37.15.6,0,.2-.05.42-.15.6s-.25.32-.42.45l-8.65,5.32-1.39.85v3.98c0,.1,0,.17.02.27v15.99c0,.17.05.37.12.52.1.15.22.3.37.4.15.1.3.15.47.15.17.02.35-.02.5-.1l26.86-14.45c.15-.07.3-.22.4-.4.1-.17.15-.37.15-.57l-.22-40.43ZM54.13,37.49l-2.21,6.35-2.21-6.35-5.98-2.35,5.98-2.35,2.21-6.35,2.21,6.35,5.98,2.35-5.98,2.35Z"/>
</svg>