<?xml version="1.0" encoding="UTF-8"?>
<svg id="Layer_1" xmlns="http://www.w3.org/2000/svg" version="1.1" viewBox="0 0 24 24">
  <!-- Generator: Adobe Illustrator 30.2.1, SVG Export Plug-In . SVG Version: 2.1.1 Build 1)  -->
  <defs>
    <style>
      .st0 {
        fill: #fff;
      }
    </style>
  </defs>
  <path class="st0" d="M12.06,9.71c-1.26,0-2.29,1.03-2.29,2.29s1.03,2.29,2.29,2.29,2.29-1.03,2.29-2.29-1.03-2.29-2.29-2.29Z"/>
  <path class="st0" d="M14.9,6.11h-5.79c-1.65,0-2.99,1.34-2.99,2.99v5.79c0,1.65,1.34,2.99,2.99,2.99h5.79c1.65,0,2.99-1.34,2.99-2.99v-5.79c0-1.65-1.34-2.99-2.99-2.99ZM12.06,15.57c-1.97,0-3.57-1.6-3.57-3.57s1.6-3.57,3.57-3.57,3.57,1.6,3.57,3.57-1.6,3.57-3.57,3.57ZM15.84,9.04c-.47,0-.85-.38-.85-.85s.38-.85.85-.85.85.38.85.85-.38.85-.85.85Z"/>
  <path class="st0" d="M12,.03C5.39.03.03,5.39.03,12s5.36,11.97,11.97,11.97,11.97-5.36,11.97-11.97S18.61.03,12,.03ZM19.26,14.9c0,2.4-1.96,4.36-4.36,4.36h-5.79c-2.4,0-4.36-1.96-4.36-4.36v-5.79c0-2.4,1.96-4.36,4.36-4.36h5.79c2.4,0,4.36,1.96,4.36,4.36v5.79Z"/>
</svg>