<?xml version="1.0" encoding="UTF-8"?>
<svg id="Layer_1" xmlns="http://www.w3.org/2000/svg" version="1.1" viewBox="0 0 24 24">
  <!-- Generator: Adobe Illustrator 30.2.1, SVG Export Plug-In . SVG Version: 2.1.1 Build 1)  -->
  <defs>
    <style>
      .st0 {
        fill: #fff;
      }
    </style>
  </defs>
  <path class="st0" d="M12,.03C5.39.03.03,5.39.03,12s5.36,11.97,11.97,11.97,11.97-5.36,11.97-11.97S18.61.03,12,.03ZM8.56,17.49h-2.58v-8.3h2.58v8.3ZM7.27,8.06c-.83,0-1.5-.67-1.5-1.5s.67-1.5,1.5-1.5,1.5.67,1.5,1.5-.67,1.5-1.5,1.5ZM18.23,17.49h-2.58v-4.04c0-.96-.02-2.2-1.34-2.2s-1.55,1.05-1.55,2.13v4.11h-2.58v-8.3h2.48v1.14h.03c.35-.65,1.19-1.34,2.44-1.34,2.61,0,3.09,1.72,3.09,3.95v4.55Z"/>
</svg>